<svg width="1200" height="800" viewBox="0 0 1200 800" fill="none" xmlns="http://www.w3.org/2000/svg">
  <rect width="1200" height="800" fill="#E8E1D4"/>
  <rect x="72" y="72" width="1056" height="656" rx="12" fill="#F3EFE7" stroke="#CDBFA9" stroke-width="2"/>
  <rect x="144" y="608" width="912" height="48" fill="#D3C4AD"/>
  <rect x="192" y="256" width="816" height="24" fill="#4A463F"/>
  <rect x="216" y="296" width="48" height="272" fill="#4A463F"/>
  <rect x="432" y="296" width="48" height="272" fill="#4A463F"/>
  <rect x="648" y="296" width="48" height="272" fill="#4A463F"/>
  <rect x="864" y="296" width="48" height="272" fill="#4A463F"/>
  <rect x="216" y="232" width="48" height="40" fill="#8B7C63"/>
  <rect x="432" y="232" width="48" height="40" fill="#8B7C63"/>
  <rect x="648" y="232" width="48" height="40" fill="#8B7C63"/>
  <rect x="864" y="232" width="48" height="40" fill="#8B7C63"/>
  <path d="M600 136L912 224H288L600 136Z" fill="#4A463F"/>
  <rect x="528" y="344" width="144" height="176" fill="#8B7C63"/>
  <rect x="560" y="376" width="80" height="112" fill="#F3EFE7"/>
  <rect x="184" y="120" width="190" height="18" fill="#B7A78C"/>
  <rect x="184" y="154" width="138" height="12" fill="#D3C4AD"/>
  <rect x="826" y="120" width="190" height="18" fill="#B7A78C"/>
  <rect x="878" y="154" width="138" height="12" fill="#D3C4AD"/>
</svg>
